# xmcd CD database file
#
# Track frame offsets:
#	220
#	14257
#	36817
#	52900
#	64902
#	79262
#	92160
#	111020
#	127082
#	141172
#	150927
#	164887
#	188865
#	199870
#	211965
#	224800
#	238297
#	253722
#	267860
#	281117
#	293812
#	306662
#	323827
#
# Disc length: 4622 seconds
#
# Revision: 0
# Processed by: cddbd v1.5.1PL0 Copyright (c) Steve Scherf et al.
# Submitted via: CDex 1.50beta10
#
DISCID=6d120c17
DTITLE=Whistling Alex Moore - From North Dallas To The East Side
DYEAR=1994
DGENRE=Blues
TTITLE0=Whistling Alex Moore's Blues
TTITLE1=Pretty Woman With A Sack Dress On
TTITLE2=Rubber Tired Hack
TTITLE3=You Say I Am A Bad Feller
TTITLE4=From North Dallas To The East Side
TTITLE5=New Miss No-Good Weed
TTITLE6=Black Eyed Peas And Hog Jowls
TTITLE7=Boogie In The Barrel
TTITLE8=Going Back To Froggy Bottom
TTITLE9=July Boogie
TTITLE10=West Texas Woman
TTITLE11=Frisky Gal
TTITLE12=Chock House Boogie
TTITLE13=Miss No-Good Weed
TTITLE14=Alex's Boogie
TTITLE15=Tou Goy Me Dissastisfied
TTITLE16=Alex's Rag
TTITLE17=Alex's Blues
TTITLE18=Alex's Wild Blues
TTITLE19=Sometime I Feel Worried
TTITLE20=I Love You Baby
TTITLE21=Rock And Roll Bed
TTITLE22=Boogiein' In Strassburg
EXTD=YEAR: 1994
EXTT0=
EXTT1=
EXTT2=
EXTT3=
EXTT4=
EXTT5=
EXTT6=
EXTT7=
EXTT8=
EXTT9=
EXTT10=
EXTT11=
EXTT12=
EXTT13=
EXTT14=
EXTT15=
EXTT16=
EXTT17=
EXTT18=
EXTT19=
EXTT20=
EXTT21=
EXTT22=
PLAYORDER=
